#N canvas 451 434 1283 495 10;
#X obj 372 77 inlet;
#X obj 365 129 pack f f f;
#X obj 392 447 outlet~;
#X obj 714 209 bng 15 250 50 0 empty empty empty 17 7 0 10 -262144
-1 -1;
#X obj 277 345 mono-chroma;
#X obj 373 344 mono-chroma;
#X obj 481 343 mono-chroma;
#X obj 576 341 mono-chroma;
#X obj 678 340 mono-chroma;
#X obj 786 340 mono-chroma;
#X obj 392 425 *~ 1;
#X obj 880 342 mono-chroma;
#X obj 988 342 mono-chroma;
#X obj 365 151 route 1 2 3 4 5 6 7 8;
#X obj 372 99 poly 8 1;
#X connect 0 0 14 0;
#X connect 1 0 13 0;
#X connect 4 0 10 0;
#X connect 5 0 10 0;
#X connect 6 0 10 0;
#X connect 7 0 10 0;
#X connect 8 0 10 0;
#X connect 9 0 10 0;
#X connect 10 0 2 0;
#X connect 11 0 10 0;
#X connect 12 0 10 0;
#X connect 13 0 4 0;
#X connect 13 1 5 0;
#X connect 13 2 6 0;
#X connect 13 3 7 0;
#X connect 13 4 8 0;
#X connect 13 5 9 0;
#X connect 13 6 11 0;
#X connect 13 7 12 0;
#X connect 14 0 1 0;
#X connect 14 1 1 1;
#X connect 14 2 1 2;
