#N canvas 500 178 1037 621 10;
#X declare -path libs/gdx-pd-patchbank;
#X declare -path abs;
#X obj 16 19 declare -path libs/gdx-pd-patchbank;
#X obj 428 586 dac~;
#X obj 79 106 vnoise~ 44100 0.1;
#X obj 99 148 r rain;
#X obj 81 220 *~;
#X obj 275 62 noise~;
#X obj 277 276 *~;
#X obj 306 207 r wind;
#X obj 298 154 +~ 700;
#X obj 276 180 vcf~ 10;
#X obj 298 132 *~ 100;
#X obj 298 110 osc~ 0.1;
#X obj 489 255 *~;
#X obj 507 170 r fire;
#X obj 487 28 vnoise~ 44100 0.1;
#X obj 486 51 -~ 0.9;
#X obj 487 75 max~ 0;
#X obj 488 121 -~ 1;
#X obj 488 100 *~ 20;
#X obj 490 149 bp~ 1700 3;
#X obj 489 276 *~ 0.2;
#X obj 710 328 *~;
#X obj 727 259 r earth;
#X obj 717 195 clip~ -1 1;
#X obj 717 166 *~;
#X obj 712 111 max~ 0;
#X obj 741 40 vnoise~ 44100 0.01;
#X obj 780 154 /~ 2;
#X obj 718 83 -~ 0.8;
#X obj 428 484 *~ 1;
#X obj 782 110 vnoise~ 44100 0.0001;
#X obj 780 132 +~ 1.5;
#X obj 710 137 *~ 2;
#X obj 779 82 *~ 0.3;
#X obj 454 557 delread~ stereo;
#X obj 454 534 delwrite~ stereo 666;
#X obj 19 48 declare -path abs;
#X obj 150 49 tanhtable~;
#X msg 727 282 \$1 100;
#X obj 727 304 line~;
#X obj 711 384 clip~ -1 1;
#X obj 81 242 *~ 0.1;
#X obj 429 506 tanh~;
#X msg 507 199 \$1 100;
#X obj 507 221 line~;
#X msg 306 231 \$1 100;
#X obj 306 253 line~;
#X msg 99 172 \$1 100;
#X obj 99 194 line~;
#X obj 709 218 lop~ 50;
#X obj 711 349 *~ 4.6;
#X obj 711 406 *~ 0.7;
#X connect 2 0 4 0;
#X connect 3 0 47 0;
#X connect 4 0 41 0;
#X connect 5 0 9 0;
#X connect 6 0 29 0;
#X connect 7 0 45 0;
#X connect 8 0 9 1;
#X connect 9 0 6 0;
#X connect 10 0 8 0;
#X connect 11 0 10 0;
#X connect 12 0 20 0;
#X connect 13 0 43 0;
#X connect 14 0 15 0;
#X connect 15 0 16 0;
#X connect 16 0 18 0;
#X connect 17 0 19 0;
#X connect 18 0 17 0;
#X connect 19 0 12 0;
#X connect 20 0 29 0;
#X connect 21 0 50 0;
#X connect 22 0 38 0;
#X connect 23 0 49 0;
#X connect 24 0 23 0;
#X connect 25 0 32 0;
#X connect 26 0 28 0;
#X connect 26 0 33 0;
#X connect 27 0 24 1;
#X connect 28 0 25 0;
#X connect 29 0 42 0;
#X connect 30 0 31 0;
#X connect 31 0 27 0;
#X connect 32 0 24 0;
#X connect 33 0 24 0;
#X connect 34 0 1 1;
#X connect 38 0 39 0;
#X connect 39 0 21 1;
#X connect 40 0 51 0;
#X connect 41 0 29 0;
#X connect 42 0 1 0;
#X connect 42 0 35 0;
#X connect 43 0 44 0;
#X connect 44 0 12 1;
#X connect 45 0 46 0;
#X connect 46 0 6 1;
#X connect 47 0 48 0;
#X connect 48 0 4 1;
#X connect 49 0 21 0;
#X connect 50 0 40 0;
#X connect 51 0 29 0;
