#N canvas 469 237 1353 693 10;
#X obj 152 14 adc~;
#X obj 151 383 bp~ 2000 10;
#X msg 1143 144 learn 0;
#X obj 926 276 bonk~;
#X obj 926 313 bng 15 250 50 0 empty empty empty 17 7 0 10 -262144
-1 -1;
#X obj 770 81 loadbang;
#X msg 770 103 minvel 80;
#X msg 1079 85 learn 3;
#X obj 1079 53 r start_learning;
#X obj 1175 97 r stop_learning;
#X floatatom 167 460 5 0 0 0 - - -, f 5;
#X floatatom 357 462 5 0 0 0 - - -, f 5;
#X obj 344 603 s level;
#X obj 451 482 vu 15 120 empty empty -1 -8 0 10 -66577 -1 1 0;
#X obj 450 451 - 88;
#X obj 151 434 sigmund~ -hop 8192 pitch env;
#X obj 151 601 s pitch;
#X obj 958 350 unpack f f f;
#X obj 858 355 bang;
#X obj 858 513 f 0;
#X obj 896 513 + 1;
#X obj 905 577 pack f f;
#X obj 876 422 change;
#X msg 876 444 0;
#X msg 1099 406 0;
#X obj 905 664 s bonk;
#X obj 151 546 spigot 0;
#X msg 219 503 0;
#X msg 258 504 1;
#X obj 215 476 moses 70;
#X msg 1203 333 0;
#X msg 1079 285 1;
#X obj 1203 431 s status;
#X obj 781 639 print;
#X obj 1007 582 list;
#X obj 905 619 list prepend -1;
#X connect 0 0 1 0;
#X connect 0 0 3 0;
#X connect 1 0 15 0;
#X connect 2 0 3 0;
#X connect 2 0 30 0;
#X connect 3 0 4 0;
#X connect 3 0 18 0;
#X connect 3 1 17 0;
#X connect 5 0 6 0;
#X connect 6 0 3 0;
#X connect 7 0 3 0;
#X connect 7 0 31 0;
#X connect 8 0 7 0;
#X connect 9 0 2 0;
#X connect 14 0 13 0;
#X connect 15 0 10 0;
#X connect 15 0 26 0;
#X connect 15 1 11 0;
#X connect 15 1 14 0;
#X connect 15 1 12 0;
#X connect 15 1 29 0;
#X connect 17 0 21 1;
#X connect 17 0 22 0;
#X connect 18 0 19 0;
#X connect 19 0 20 0;
#X connect 19 0 21 0;
#X connect 20 0 19 1;
#X connect 21 0 35 0;
#X connect 22 0 23 0;
#X connect 23 0 19 1;
#X connect 24 0 19 1;
#X connect 26 0 16 0;
#X connect 27 0 26 1;
#X connect 28 0 26 1;
#X connect 29 0 27 0;
#X connect 29 1 28 0;
#X connect 30 0 24 0;
#X connect 30 0 32 0;
#X connect 30 0 34 0;
#X connect 31 0 24 0;
#X connect 31 0 32 0;
#X connect 31 0 34 0;
#X connect 34 0 35 1;
#X connect 35 0 25 0;
#X connect 35 0 33 0;
