#N canvas 669 142 826 511 10;
#X obj 284 117 delwrite~ sample 200;
#X obj 471 117 - 1;
#X obj 471 163 phasor~;
#X obj 523 218 wrap~;
#X obj 522 253 -~ 0.5;
#X obj 522 275 *~ 0.5;
#X obj 522 297 cos~;
#X obj 523 328 *~;
#X obj 569 253 *~ 50;
#X obj 569 275 vd~ sample;
#X obj 457 363 +~;
#X obj 452 433 dac~;
#X obj 432 252 *~ 50;
#X obj 432 274 vd~ sample;
#X obj 385 327 *~;
#X obj 385 252 -~ 0.5;
#X obj 385 274 *~ 0.5;
#X obj 385 296 cos~;
#X text 322 459 Pitch shifter algorithm from (thanks) http://www.katjaas.nl/pitchshift/pitchshift.html
;
#X obj 96 131 vradio 32 1 0 4 empty empty Input 0 -8 0 10 -262144 -1
-1 2;
#X obj 471 141 *~ -20;
#X obj 523 197 +~ 0.5;
#X text 143 171 Record;
#X text 143 204 Play;
#X text 143 234 Stop;
#N canvas 168 647 450 300 audio 1;
#X obj 150 266 outlet~;
#N canvas 65 103 450 300 micin 0;
#X obj 120 107 switch~;
#X obj 120 38 inlet;
#X obj 117 154 adc~;
#X obj 117 176 outlet~;
#X obj 174 38 loadbang;
#X msg 174 60 0;
#X connect 1 0 0 0;
#X connect 2 0 3 0;
#X connect 4 0 5 0;
#X connect 5 0 0 0;
#X restore 104 216 pd micin;
#N canvas 985 510 789 494 record 0;
#X obj 144 6 inlet;
#X obj 198 419 outlet~;
#X obj 269 117 adc~;
#X obj 284 194 tabwrite~ buffer;
#X obj 198 391 tabread4~ buffer;
#X obj 198 366 line~;
#X obj 240 248 samplerate~;
#X obj 225 282 *;
#X obj 198 320 pack f f;
#X obj 198 212 t f f b;
#X msg 198 344 0 \, \$2 \$1;
#X obj 174 273 * 1000;
#X msg 149 337 0;
#X obj 144 28 route stop play rec;
#X msg 227 163 stop;
#X obj 363 69 t b b;
#X obj 33 126 switch~;
#X msg 62 87 0;
#X msg 107 99 1;
#X msg 198 190 10;
#X obj 484 263 samplerate~;
#X obj 484 298 * 10;
#X msg 331 124 start 0;
#X obj 484 234 loadbang;
#X obj 484 361 array define buffer;
#X msg 484 329 resize \$1;
#X msg 415 273 const 0;
#X connect 0 0 13 0;
#X connect 2 0 3 0;
#X connect 4 0 1 0;
#X connect 5 0 4 0;
#X connect 6 0 7 1;
#X connect 7 0 8 1;
#X connect 8 0 10 0;
#X connect 9 0 11 0;
#X connect 9 1 7 0;
#X connect 9 2 6 0;
#X connect 10 0 5 0;
#X connect 11 0 8 0;
#X connect 12 0 5 0;
#X connect 13 0 12 0;
#X connect 13 0 14 0;
#X connect 13 0 17 0;
#X connect 13 1 19 0;
#X connect 13 1 14 0;
#X connect 13 1 18 0;
#X connect 13 2 15 0;
#X connect 13 2 18 0;
#X connect 14 0 3 0;
#X connect 15 0 22 0;
#X connect 15 1 26 0;
#X connect 17 0 16 0;
#X connect 18 0 16 0;
#X connect 19 0 9 0;
#X connect 20 0 21 0;
#X connect 21 0 25 0;
#X connect 22 0 3 0;
#X connect 23 0 20 0;
#X connect 25 0 24 0;
#X connect 26 0 24 0;
#X restore 191 219 pd record;
#X msg 182 180 rec;
#X msg 213 181 play;
#X obj 98 93 select 0;
#X msg 251 182 stop;
#X msg 104 177 1;
#X msg 135 178 0;
#X obj 153 38 r mode;
#X obj 177 94 select 1 2;
#X connect 1 0 0 0;
#X connect 2 0 0 0;
#X connect 3 0 2 0;
#X connect 4 0 2 0;
#X connect 5 0 7 0;
#X connect 5 1 8 0;
#X connect 6 0 2 0;
#X connect 7 0 1 0;
#X connect 8 0 1 0;
#X connect 9 0 5 0;
#X connect 9 0 10 0;
#X connect 10 0 3 0;
#X connect 10 1 4 0;
#X connect 10 2 6 0;
#X restore 283 28 pd audio;
#X obj 94 307 hsl 128 15 0.25 4 1 0 empty empty Pitch -2 -8 0 10 -262144
-1 -1 0 1;
#X floatatom 91 330 5 0 0 0 - - -, f 5;
#X obj 471 42 r pitch;
#N canvas 65 91 450 481 vador 0;
#X obj 154 35 inlet~;
#X obj 100 339 outlet~;
#X obj 214 85 env~ 1024;
#X obj 323 313 print~;
#X obj 340 224 bng 15 250 50 0 empty empty empty 17 7 0 10 -262144
-1 -1;
#X obj 115 184 *~;
#X obj 256 222 vline~;
#X obj 191 248 *~ -1;
#X obj 191 270 +~ 1;
#X obj 138 216 *~;
#N canvas 625 308 450 300 soufle 0;
#X obj 125 218 outlet~;
#X obj 124 32 noise~;
#X obj 125 91 bp~ 300 4;
#X obj 281 109 vline~;
#X obj 149 146 *~;
#X obj 336 169 vline~;
#X msg 222 82 500;
#X obj 125 194 *~ 0.6;
#X obj 281 131 *~;
#X obj 76 101 + 1;
#X obj 47 121 mod 2;
#X obj 47 143 select 0 1;
#X obj 47 99 i 0;
#X obj 47 23 loadbang;
#X msg 46 51 1;
#X msg 336 115 1 50 \, 0 1300 500;
#X obj 47 77 metro 2500;
#X obj 239 10 inlet;
#X msg 239 32 0;
#X msg 194 45 1500;
#X msg 281 55 1 1000 \, 0 1000 1200;
#X connect 1 0 2 0;
#X connect 2 0 4 0;
#X connect 3 0 8 0;
#X connect 3 0 8 1;
#X connect 4 0 7 0;
#X connect 6 0 2 1;
#X connect 7 0 0 0;
#X connect 8 0 4 1;
#X connect 9 0 12 1;
#X connect 10 0 11 0;
#X connect 11 0 20 0;
#X connect 11 1 15 0;
#X connect 12 0 9 0;
#X connect 12 0 10 0;
#X connect 13 0 14 0;
#X connect 14 0 16 0;
#X connect 15 0 5 0;
#X connect 15 0 6 0;
#X connect 15 0 3 0;
#X connect 16 0 12 0;
#X connect 17 0 18 0;
#X connect 18 0 12 1;
#X connect 18 0 14 0;
#X connect 19 0 2 1;
#X connect 20 0 3 0;
#X connect 20 0 19 0;
#X restore 141 151 pd soufle;
#X obj 229 317 moses 70;
#X obj 229 352 bang;
#X msg 302 427 0;
#X obj 292 378 spigot 1;
#X obj 241 410 spigot 1;
#X msg 257 444 0;
#X msg 361 380 1;
#X msg 358 429 1;
#X msg 198 440 1;
#X msg 258 200 1 50 \, 0 1000 1000;
#X obj 211 164 moses 80;
#X obj 126 305 *~ 0;
#X obj 144 279 r vador;
#X connect 0 0 2 0;
#X connect 0 0 5 0;
#X connect 2 0 21 0;
#X connect 4 0 3 0;
#X connect 5 0 1 0;
#X connect 6 0 3 0;
#X connect 6 0 5 1;
#X connect 6 0 7 0;
#X connect 7 0 8 0;
#X connect 8 0 9 1;
#X connect 9 0 22 0;
#X connect 10 0 9 0;
#X connect 11 0 12 0;
#X connect 11 0 14 0;
#X connect 13 0 14 1;
#X connect 14 0 13 0;
#X connect 14 0 18 0;
#X connect 15 0 16 0;
#X connect 15 0 19 0;
#X connect 16 0 15 1;
#X connect 16 0 17 0;
#X connect 17 0 14 1;
#X connect 18 0 15 1;
#X connect 19 0 10 0;
#X connect 20 0 6 0;
#X connect 21 0 11 0;
#X connect 21 1 20 0;
#X connect 21 1 15 0;
#X connect 22 0 1 0;
#X connect 23 0 22 1;
#X restore 459 391 pd vador;
#X obj 94 44 tgl 32 0 empty empty empty 17 7 0 10 -262144 -1 -1 0 1
;
#X text 142 140 Realtime;
#X text 134 53 Vador;
#X obj 91 357 s pitch;
#X obj 96 264 s mode;
#X obj 94 81 s vador;
#X obj 284 72 hip~ 20;
#X connect 1 0 20 0;
#X connect 2 0 12 0;
#X connect 2 0 15 0;
#X connect 2 0 21 0;
#X connect 3 0 4 0;
#X connect 3 0 8 0;
#X connect 4 0 5 0;
#X connect 5 0 6 0;
#X connect 6 0 7 0;
#X connect 7 0 10 1;
#X connect 8 0 9 0;
#X connect 9 0 7 1;
#X connect 10 0 29 0;
#X connect 12 0 13 0;
#X connect 13 0 14 1;
#X connect 14 0 10 0;
#X connect 15 0 16 0;
#X connect 16 0 17 0;
#X connect 17 0 14 0;
#X connect 19 0 34 0;
#X connect 20 0 2 0;
#X connect 21 0 3 0;
#X connect 25 0 36 0;
#X connect 26 0 27 0;
#X connect 27 0 33 0;
#X connect 28 0 1 0;
#X connect 29 0 11 0;
#X connect 29 0 11 1;
#X connect 30 0 35 0;
#X connect 36 0 0 0;
